<?xml version="1.0" encoding="UTF-8" standalone="no"?>
<!-- Created with Inkscape (http://www.inkscape.org/) -->

<svg
throwIfNamespace=false
   width="79.374855mm"
   height="31.859978mm"
   viewBox="0 0 79.374854 31.859978"
   version="1.1"
   id="svg5"
   xml:space="preserve"
   inkscape:version="1.2.1 (9c6d41e410, 2022-07-14)"
   sodipodi:docname="404.svg"
   xmlns:inkscape="http://www.inkscape.org/namespaces/inkscape"
   xmlns:sodipodi="http://sodipodi.sourceforge.net/DTD/sodipodi-0.dtd"
    xmlnsXlink="http://www.w3.org/1999/xlink"
   xmlns="http://www.w3.org/2000/svg"
   xmlns:svg="http://www.w3.org/2000/svg"><sodipodi:namedview
     id="namedview7"
     pagecolor="#ffffff"
     bordercolor="#000000"
     borderopacity="0.25"
     inkscape:showpageshadow="2"
     inkscape:pageopacity="0.0"
     inkscape:pagecheckerboard="0"
     inkscape:deskcolor="#d1d1d1"
     inkscape:document-units="mm"
     showgrid="false"
     inkscape:zoom="0.5"
     inkscape:cx="505"
     inkscape:cy="196"
     inkscape:window-width="1920"
     inkscape:window-height="1017"
     inkscape:window-x="-8"
     inkscape:window-y="-8"
     inkscape:window-maximized="1"
     inkscape:current-layer="layer1-3" /><defs
     id="defs2"><linearGradient
       inkscape:collect="always"
       id="linearGradient4288"><stop
         style="stop-color:#ffffff;stop-opacity:1;"
         offset="0"
         id="stop4284" /><stop
         style="stop-color:#ffffff;stop-opacity:0.51372552;"
         offset="0.48553056"
         id="stop4344" /><stop
         style="stop-color:#ffffff;stop-opacity:1;"
         offset="1"
         id="stop4286" /></linearGradient><linearGradient
       inkscape:collect="always"
       xlink:href="#linearGradient4288"
       id="linearGradient4290"
       x1="0.59364194"
       y1="0.29545033"
       x2="0.66331559"
       y2="0.29545033"
       gradientUnits="userSpaceOnUse"
       gradientTransform="translate(0.03766276,0.39975917)" /></defs><g
     inkscape:label="Layer 1"
     inkscape:groupmode="layer"
     id="layer1"
     transform="translate(-11.298831,-119.92775)"><g
       inkscape:label="Layer 1"
       id="layer1-3"
       transform="matrix(300.00001,0,0,300.00001,-40.376972,86.78365)"><path
         style="fill:#abddfc;fill-opacity:1;stroke:none;stroke-width:0.000146238;stroke-dasharray:none;stroke-opacity:1"
         id="path354"
         sodipodi:type="arc"
         sodipodi:cx="0.30191863"
         sodipodi:cy="-0.21604343"
         sodipodi:rx="0.10282543"
         sodipodi:ry="0.10556308"
         sodipodi:start="0"
         sodipodi:end="3.1402488"
         sodipodi:open="true"
         sodipodi:arc-type="arc"
         d="M 0.40474406,-0.21604343 A 0.10282543,0.10556308 0 0 1 0.30198772,-0.11048037 0.10282543,0.10556308 0 0 1 0.19909329,-0.21590157"
         transform="scale(1,-1)" /><path
         style="opacity:0.958991;fill:none;stroke:#ffffff;stroke-width:0.00160998;stroke-linecap:round;stroke-dasharray:0.00482994, 0.00482994;stroke-dashoffset:0;stroke-opacity:1"
         d="m 0.22326769,0.21184747 c -0.001047,-0.0399343 0.0307341,-0.0769433 0.0805343,-0.0745343 0.0286004,0.003222 0.0745354,0.0122189 0.0766727,0.0745343"
         id="path3154"
         sodipodi:nodetypes="ccc" /><path
         style="fill:#035080;fill-opacity:1;stroke-width:4.02495e-06;stroke-dasharray:none"
         d="m 0.23480061,0.156288 c -0.001115,-1.1532e-4 -0.001856,-2.56e-4 -0.00295,-5.59e-4 -0.00313,-8.685e-4 -0.00601,-0.002474 -0.008486,-0.004728 -7.315e-4,-6.665e-4 -0.00121,-0.001198 -0.001816,-0.002017 -2.7438e-4,-3.7121e-4 -6.455e-4,-8.725e-4 -8.25e-4,-0.001113 -4.2863e-4,-5.755e-4 -9.405e-4,-0.001431 -0.001414,-0.002366 -6.84e-4,-0.001349 -0.001147,-0.002568 -0.001508,-0.003972 -2.5493e-4,-9.95e-4 -3.175e-4,-0.001312 -4.2783e-4,-0.002167 -2.328e-4,-0.001806 -2.2584e-4,-0.003337 2.359e-5,-0.005188 6.765e-4,-0.005012 0.003355,-0.009585 0.007442,-0.0127009 0.0029,-0.002211 0.006546,-0.003596 0.0102818,-0.003907 9.025e-4,-7.495e-5 0.002933,-2.81e-5 0.003785,8.736e-5 0.002193,2.966e-4 0.004349,9.53e-4 0.006236,0.001898 0.005668,0.002837 0.009625,0.008365 0.0104687,0.0146225 2.4751e-4,0.001838 2.5493e-4,0.003423 2.352e-5,0.00523 -3.2147e-4,0.00251 -0.00115,0.005001 -0.002391,0.007185 -3.1671e-4,5.57e-4 -0.001041,0.001634 -0.001485,0.002204 -2.2663e-4,2.9183e-4 -4.1169e-4,5.46e-4 -4.1169e-4,5.645e-4 0,1.908e-5 -2.6696e-4,3.3046e-4 -5.93e-4,6.925e-4 -0.001879,0.002083 -0.004153,0.0037 -0.006764,0.004808 -0.001475,6.265e-4 -0.003324,0.001123 -0.005083,0.001363 -8.615e-4,1.1813e-4 -0.003218,1.5368e-4 -0.004105,6.249e-5 z M 0.23521706,0.151504 V 0.14966 h -0.00193 -0.001931 l 2.6095e-4,3.8814e-4 c 7.625e-4,0.001135 0.00172,0.002214 0.002675,0.003017 l 3.3894e-4,2.8469e-4 h 2.9368e-4 2.9369e-4 z m 0.003746,0.001298 c 9.44e-4,-8.725e-4 0.0018,-0.001842 0.002408,-0.002723 l 2.876e-4,-4.1831e-4 h -0.001934 -0.001934 v 0.001844 0.001844 h 2.9025e-4 2.9025e-4 z m 0.00534,-0.001317 c 7.09e-4,-3.5904e-4 0.001625,-9.515e-4 0.002249,-0.001455 2.3002e-4,-1.8547e-4 4.183e-4,-3.4476e-4 4.183e-4,-3.5402e-4 0,-9.22e-6 -4.8736e-4,-1.656e-5 -0.001083,-1.63e-5 l -0.001083,4.6e-7 -1.717e-4,3.2941e-4 c -2.0032e-4,3.8444e-4 -8.41e-4,0.001508 -9.4e-4,0.00165 -7.004e-5,9.966e-5 -8.706e-5,1.6412e-4 -4.402e-5,1.6412e-4 1.332e-5,0 3.0771e-4,-1.4367e-4 6.5442e-4,-3.1867e-4 z m -0.0151879,-3.1327e-4 c -1.6567e-4,-2.7728e-4 -4.4186e-4,-7.655e-4 -6.135e-4,-0.001083 l -3.1221e-4,-5.795e-4 -0.001077,-1.147e-5 c -6.78e-4,-7.21e-6 -0.001077,4.02e-6 -0.001077,3.034e-5 0,6.235e-5 7.46e-4,7.15e-4 0.001168,0.001021 2.028e-4,1.4727e-4 5.39e-4,3.675e-4 7.475e-4,4.8895e-4 3.9396e-4,2.2971e-4 0.001271,6.285e-4 0.001394,6.345e-4 5.142e-5,2.29e-6 -1.107e-5,-1.3346e-4 -2.2979e-4,-5.0082e-4 z m -0.002177,-0.004293 c 0,-1.917e-5 -5.847e-5,-2.0743e-4 -1.2996e-4,-4.1831e-4 -8.085e-4,-0.002384 -0.001319,-0.004793 -0.001481,-0.007 l -2.941e-5,-3.9688e-4 h -0.002608 -0.002608 l 2.382e-5,1.6088e-4 c 4.1646e-4,0.002812 0.001423,0.005256 0.00303,0.007357 l 2.5431e-4,3.3232e-4 h 0.001774 c 9.765e-4,0 0.001775,-1.569e-5 0.001774,-3.501e-5 z m 0.008107,-0.003891 v -0.003925 h -0.003499 -0.003499 l 2.862e-5,2.6802e-4 c 2.3467e-4,0.002197 9.135e-4,0.00519 0.001617,0.007132 6.839e-5,1.8872e-4 1.3288e-4,3.6751e-4 1.4324e-4,3.9688e-4 1.484e-5,4.21e-5 5.77e-4,5.36e-5 0.002616,5.36e-5 h 0.002597 z m 0.008218,0.003679 c 2.1501e-4,-4.8339e-4 6.61e-4,-0.001892 8.95e-4,-0.002821 3.2093e-4,-0.001279 6.39e-4,-0.003123 7.745e-4,-0.004491 l 2.854e-5,-2.8787e-4 -1.2111e-4,-3.38e-5 c -1.5654e-4,-4.364e-5 -0.006604,-4.442e-5 -0.006759,-8.2e-7 l -1.1795e-4,3.299e-5 v 0.003924 0.003924 h 0.002596 0.002596 z m 0.00667,-2.7887e-4 c 0.001486,-0.001872 0.002436,-0.004095 0.002871,-0.006724 4.864e-5,-2.9475e-4 9.825e-5,-5.8e-4 1.0993e-4,-6.325e-4 l 2.107e-5,-9.651e-5 h -0.002613 -0.002612 l -2.871e-5,3.7518e-4 c -7.296e-5,9.515e-4 -2.6802e-4,0.002361 -4.4794e-4,0.003236 -2.3388e-4,0.001135 -7.05e-4,0.002854 -0.001073,0.003914 -4.838e-5,1.3935e-4 -8.804e-5,2.6002e-4 -8.804e-5,2.6802e-4 0,8.11e-6 8.06e-4,1.473e-5 0.001792,1.473e-5 h 0.001792 z m -0.0147163,-0.0139729 v -0.003903 l -0.002961,-1.13e-5 -0.002962,-1.131e-5 -8.634e-5,2.7887e-4 c -1.618e-4,5.225e-4 -5.505e-4,0.002165 -6.8e-4,0.002874 -2.8654e-4,0.001565 -4.1381e-4,0.002649 -4.5958e-4,0.003915 l -2.766e-5,7.62e-4 h 0.003588 0.003588 z m 0.009852,0.003034 c -7.296e-5,-0.002329 -4.0296e-4,-0.004379 -0.001024,-0.00637 l -1.7747e-4,-5.6775e-4 h -0.002952 -0.002952 v 0.003903 0.003903 h 0.003567 0.003567 z m 0.008121,7.72e-4 c -2.74e-6,-5.98e-4 -1.7123e-4,-0.001811 -3.9264e-4,-0.002821 -3.384e-4,-0.001546 -8.95e-4,-0.003018 -0.00168,-0.004449 l -2.6453e-4,-4.808e-4 -1.9304e-4,-3.345e-5 c -2.5245e-4,-4.378e-5 -0.003608,-4.275e-5 -0.003868,1.18e-6 l -1.9985e-4,3.387e-5 8.268e-5,2.8734e-4 c 1.8145e-4,6.285e-4 5.645e-4,0.002464 6.825e-4,0.003261 2.1005e-4,0.00143 3.4184e-4,0.002933 3.4237e-4,0.003901 l 1.9e-7,3.9687e-4 h 0.002745 0.002745 z m -0.0277525,-2.7861e-4 c 3.25e-6,-9.725e-4 1.8098e-4,-0.002965 3.6407e-4,-0.004079 1.3312e-4,-8.1e-4 4.0137e-4,-0.002077 5.94e-4,-0.002806 l 1.4483e-4,-5.47e-4 h -0.002134 -0.002134 l -2.13e-4,3.7544e-4 c -6.47e-4,0.001141 -0.001328,0.002859 -0.001659,0.004193 -1.816e-4,7.32e-4 -3.6619e-4,0.0019 -4.3551e-4,0.002755 l -2.863e-5,3.5402e-4 h 0.002749 0.002749 z m 0.002076,-0.0105417 c 4.0296e-4,-9.94e-4 9.855e-4,-0.00211 0.001532,-0.002936 1.8022e-4,-2.7252e-4 3.212e-4,-5.02e-4 3.1326e-4,-5.105e-4 -1.806e-5,-1.956e-5 -8.315e-4,4.1301e-4 -0.001263,6.71e-4 -9.105e-4,5.46e-4 -0.001868,0.001233 -0.002573,0.001846 -4.0243e-4,3.4978e-4 -0.001287,0.001217 -0.001287,0.001262 0,1.837e-5 7.065e-4,2.833e-5 0.00157,2.214e-5 l 0.00157,-1.124e-5 z m 0.007703,-0.002316 v -0.002681 h -2.9368e-4 -2.9369e-4 l -3.818e-4,2.8628e-4 c -4.7386e-4,3.5507e-4 -0.001397,0.001272 -0.001829,0.001819 -7.09e-4,8.955e-4 -0.001367,0.001932 -0.001895,0.002983 -6.095e-5,1.2138e-4 -1.1085e-4,2.3232e-4 -1.1085e-4,2.4671e-4 0,1.426e-5 0.001081,2.595e-5 0.002402,2.595e-5 h 0.002401 z m 0.007507,0.002637 c 0,-1.1361e-4 -5.93e-4,-0.001199 -0.001007,-0.001844 -7.205e-4,-0.001122 -0.001735,-0.002266 -0.00279,-0.003148 l -3.8602e-4,-3.2279e-4 -2.8946e-4,-1.52e-6 -2.8945e-4,-1.51e-6 v 0.002681 0.002681 h 0.002382 c 0.00159,0 0.002381,-1.454e-5 0.002381,-4.324e-5 z m 0.006049,1.088e-5 c 0,-4.462e-5 -8.89e-4,-9.155e-4 -0.001287,-0.001262 -7.1e-4,-6.16e-4 -0.001632,-0.001281 -0.002467,-0.001783 -4.6117e-4,-2.7649e-4 -0.001319,-7.4099e-4 -0.001367,-7.4099e-4 -1.631e-5,0 8.366e-5,1.6892e-4 2.2275e-4,3.7544e-4 4.8471e-4,7.215e-4 0.001149,0.001959 0.001485,0.002766 8.122e-5,1.9521e-4 1.7804e-4,4.2703e-4 2.1502e-4,5.16e-4 l 6.76e-5,1.6087e-4 h 0.001566 c 8.61e-4,0 0.001565,-1.48e-5 0.001565,-3.232e-5 z"
         id="path5346" /><rect
         style="opacity:1;fill:#ffffff;fill-opacity:1;stroke:none;stroke-width:0.000146239;stroke-linecap:round;stroke-dasharray:none;stroke-dashoffset:0;stroke-opacity:1"
         id="rect7419"
         width="0.1141181"
         height="0.068336219"
         x="0.24531706"
         y="0.1376202"
         ry="0.0024362772" /><path
         style="opacity:0.388013;fill:#dcdcdc;fill-opacity:1;stroke:none;stroke-width:0.00201247;stroke-linecap:round;stroke-dasharray:0.0060374, 0.0060374;stroke-dashoffset:0;stroke-opacity:1"
         d="m 0.24526651,0.16815493 -2.3804e-4,-0.0305022 0.0378475,-7.14e-4 z"
         id="path6473"
         sodipodi:nodetypes="cccc" /><path
         style="opacity:0.388013;fill:#dcdcdc;fill-opacity:1;stroke:none;stroke-width:0.00201247;stroke-linecap:round;stroke-dasharray:0.0060374, 0.0060374;stroke-dashoffset:0;stroke-opacity:1"
         d="m 0.24599032,0.18828326 0.0589105,-0.0521779 0.016495,8.4162e-4 -0.0750688,0.0681679 z"
         id="path6529" /><path
         style="opacity:0.388013;fill:#dcdcdc;fill-opacity:1;stroke:none;stroke-width:0.00201247;stroke-linecap:round;stroke-dasharray:0.0060374, 0.0060374;stroke-dashoffset:0;stroke-opacity:1"
         d="m 0.3599641,0.15197644 -6.91e-4,0.0169711 -0.0358957,0.0376247 -0.0189322,-9.86e-5 z"
         id="path6533"
         sodipodi:nodetypes="ccccc" /><path
         style="opacity:0.388013;fill:#dcdcdc;fill-opacity:1;stroke:none;stroke-width:0.00201247;stroke-linecap:round;stroke-dasharray:0.0060374, 0.0060374;stroke-dashoffset:0;stroke-opacity:1"
         d="m 0.3397662,0.13598644 0.0183286,4.7625e-4 -0.0714104,0.069268 -0.0180906,2.3803e-4 z"
         id="path6531" /><path
         id="rect962"
         style="fill:#0d2074;fill-opacity:1;stroke:none;stroke-width:0.00067485;stroke-dasharray:none;stroke-opacity:1"
         d="m 0.24487701,0.13476115 c -0.001471,1.85e-5 -0.002648,0.001209 -0.002648,0.002683 v 0.0671733 c 0,0.001487 0.001196,0.002683 0.002683,0.002683 h 0.11384952 c 0.001487,0 0.002683,-0.001197 0.002683,-0.002683 v -0.0671732 c 0,-0.001487 -0.001197,-0.002683 -0.002683,-0.002683 H 0.24491167 Z m 0.004137,0.004012 h 0.10631798 c 0.00135,0 0.002436,0.001086 0.002436,0.002436 v 0.060989 c 0,0.001349 -0.001086,0.002436 -0.002436,0.002436 H 0.24901403 c -0.00135,0 -0.002437,-0.001086 -0.002437,-0.002436 v -0.0609889 c 0,-0.00135 0.001087,-0.002436 0.002436,-0.002437 z" /><path
         style="fill:#0d2074;fill-opacity:1;stroke:none;stroke-width:0.00067082;stroke-dasharray:none;stroke-opacity:1"
         d="m 0.23122248,0.2075241 0.0576043,1.1902e-4 0.002104,0.002364 0.0220494,-1.2624e-4 0.001768,-0.002104 0.057332,-1.3337e-4 1.1902e-4,0.004046 -0.004404,0.003749 -0.13216865,5.36e-4 -0.004047,-0.004285 z"
         id="path2997" /><text
         xml:space="preserve"
         style="font-weight:bold;font-size:0.0483312px;font-family:Arial;-inkscape-font-specification:'Arial Bold';opacity:0.824034;fill:#0d2074;fill-opacity:1;stroke:none;stroke-width:0.00165925;stroke-linecap:round;stroke-dasharray:none;stroke-dashoffset:0;stroke-opacity:1"
         x="0.26368731"
         y="0.18351716"
         id="text6589"><tspan
           sodipodi:role="line"
           id="tspan6587"
           style="stroke-width:0.00165925"
           x="0.26368731"
           y="0.18351716">404</tspan></text><path
         style="fill:#c9cacc;fill-opacity:1;stroke:none;stroke-width:0.000116943;stroke-dasharray:none;stroke-opacity:1"
         d="m 0.36449365,0.19776649 0.0150959,0.0153528 c 0.002646,0.002297 0.005663,-0.001291 0.003704,-0.003557 l -0.0153531,-0.0154837 z"
         id="path3151"
         sodipodi:nodetypes="ccccc" /><ellipse
         style="opacity:0.686695;fill:url(#linearGradient4290);fill-opacity:1;stroke:none;stroke-width:0.000169354;stroke-linecap:round;stroke-dasharray:none;stroke-opacity:1"
         id="path3914"
         cx="0.35588124"
         cy="0.18492979"
         rx="0.014021627"
         ry="0.013755396" /><path
         id="path3147"
         style="fill:#c9cacc;fill-opacity:1;stroke:none;stroke-width:0.000116241;stroke-dasharray:none;stroke-opacity:1"
         d="m 0.35586157,0.17001062 a 0.01497108,0.01535843 0 0 0 -0.0149044,0.0153585 0.01497108,0.01535843 0 0 0 0.0149709,0.0153585 0.01497108,0.01535843 0 0 0 0.0149709,-0.0153585 0.01497108,0.01535843 0 0 0 -0.0149709,-0.0153585 0.01497108,0.01535843 0 0 0 -6.65e-5,0 z m -4.494e-5,0.00258 a 0.01250753,0.01277899 0 0 1 1.1146e-4,0 0.01250753,0.01277899 0 0 1 0.0125074,0.0127787 0.01250753,0.01277899 0 0 1 -0.0125074,0.0127787 0.01250753,0.01277899 0 0 1 -0.0125074,-0.0127787 0.01250753,0.01277899 0 0 1 0.0123959,-0.0127787 z" /><path
         style="opacity:1;fill:#009dff;fill-opacity:1;stroke:#0d2074;stroke-width:0.00110552;stroke-linecap:round;stroke-dasharray:none;stroke-dashoffset:0;stroke-opacity:1"
         d="m 0.17280543,0.21599124 0.23748396,-5.32e-5"
         id="path7993"
         sodipodi:nodetypes="cc" /><path
         style="opacity:1;fill:#009dff;fill-opacity:1;stroke:#0d2074;stroke-width:0.00110552;stroke-linecap:round;stroke-dasharray:none;stroke-dashoffset:0;stroke-opacity:1"
         d="m 0.41371776,0.21604345 0.0168891,6.246e-5"
         id="path7995"
         sodipodi:nodetypes="cc" /><path
         style="opacity:1;fill:#009dff;fill-opacity:1;stroke:#0d2074;stroke-width:0.00110552;stroke-linecap:round;stroke-dasharray:none;stroke-dashoffset:0;stroke-opacity:1"
         d="m 0.43289774,0.21612751 0.003385,-2.149e-5"
         id="path7997"
         sodipodi:nodetypes="cc" /><path
         style="opacity:1;fill:#cceeff;fill-opacity:1;stroke:none;stroke-width:8.01535e-05;stroke-linecap:round;stroke-dasharray:none;stroke-opacity:1"
         d="m 0.34868327,0.17804251 c -0.002107,0.00151 4.0296e-4,0.004301 0.002057,0.002009 0.003062,-0.004245 0.008942,-0.003942 0.0130836,2.8284e-4 6.595e-4,6.725e-4 0.001344,6.875e-4 6.015e-4,-5.42e-4 -0.003949,-0.005992 -0.00967,-0.006525 -0.0157421,-0.00175 z"
         id="path2543"
         sodipodi:nodetypes="csscc" /></g></g></svg>
