<svg width="298" height="170" viewBox="0 0 298 170" fill="none" xmlns="http://www.w3.org/2000/svg">
<path d="M51.5129 81.2027L168.343 81.708C176.034 80.5268 179.635 79.3589 185.002 76.5C190.979 71.6014 194.205 68.5471 199.502 62L261.002 63L235.502 109L169.002 108.5C168.607 104.897 167.384 102.428 165.5 97.5C162 92.5 158.5 91 153.236 90.3025C147.972 89.6049 50.0021 88.7864 50.0021 88.7864C43.0005 88.7864 46.5003 82.5 51.5129 81.2027Z" fill="#00AEEF"/>
<path d="M96.0015 0H297.502L286.002 20.5L270.002 47.5L206.002 47C211.036 28.4175 208.241 20.0394 192.502 9H92.0015C91.0285 9.19311 90.1453 5.6662 92.5015 3.5C94.8578 1.3338 94.6347 1.36683 96.0015 0Z" fill="#00AEEF"/>
<path d="M4.49889 162H125.992C132.238 160.221 135.763 158.639 141.492 154.5C152.398 146.087 156.713 139.72 164 124H226.492L200.492 170H2.99177C-3 170 1.99987 164 4.49889 162Z" fill="#00AEEF"/>
</svg>
