<svg width="109" height="167" viewBox="0 0 109 167" fill="none" xmlns="http://www.w3.org/2000/svg">
<path d="M28.5 80.3473C37.1802 76.886 45.987 79.4726 55.5 77.3459C65.013 75.2193 84.8094 83.5822 84.5 83.8473L95 90.8453C98.2631 93.9326 99.6809 95.8564 101 99.8473C102.319 103.838 105 107.846 106 111.347C107 114.849 108.5 140.847 108.5 140.847V166.847H0V131.347C0.339185 123.129 0.880958 118.362 3 109.347C4.2614 104.14 5.21202 101.473 7.5 97.3473C10.496 93.2619 12.2675 91.317 15.5 88.3473C19.6296 84.1235 22.5362 82.4053 28.5 80.3473Z" fill="#EFF0F0"/>
<path d="M43.1291 78.4267C43.0817 77.5348 44.1382 77.0328 44.7997 77.633L50.7373 83.0206C50.9213 83.1875 51.1609 83.28 51.4093 83.28H59.1754C59.4358 83.28 59.6858 83.1785 59.8725 82.997L64.1661 78.8228C64.8188 78.1883 65.9109 78.6849 65.8617 79.5939L64.9302 96.8L63.8605 126.96L62.3116 153.059C62.2803 153.588 61.8427 154 61.3134 154H47.1763C46.6371 154 46.195 153.572 46.1769 153.034L44.6047 106.16L43.1291 78.4267Z" fill="#9BD6D2"/>
<ellipse cx="29.5" cy="117" rx="0.5" ry="1" fill="#D9D9D9"/>
<path d="M79.0052 44.5234C79.0052 59.4351 63.5045 75 51.0052 75C42 75 24.0056 57.5 25.0058 43.5C25.0058 28.5883 30.0052 15.523 52.0052 23.5234C74.0052 14.5232 79.0052 29.6118 79.0052 44.5234Z" fill="#F8E1CF"/>
<path d="M22.4996 13.0232C24.1714 10.4783 27.5005 6.52323 27.9997 6.52323C28.4989 6.52323 33.4997 6.52323 33.4997 6.52323C35.0759 4.02388 36.1519 2.89585 38.4997 1.52323L43.9997 0.0232301C48.2485 -0.0937487 50.3383 0.204779 53.4997 1.52323C57.6 3.39861 59.7681 4.03006 63.4997 4.52323C68.2333 5.46201 70.8684 5.74202 75.4997 5.52323C80.1384 5.62466 86.4989 3.52323 86.9997 4.52323C87.5004 5.52323 82.9554 23.267 82.4997 23.0232C81.7277 25.8086 81.3796 27.5266 81.0004 31.0233C80.5015 31.2518 79.9999 39.5232 79.9999 39.5232C78.9999 40.0232 78.9999 39.0232 78.4999 38.5232C77.9999 38.0232 77.9999 35.0232 77.9999 35.0232L75.9997 29.5232C74.483 26.4794 73.4465 24.9863 70.9997 23.0232L68.9997 23.5232C68.9997 23.5232 68.9098 23.6518 66.9997 24.0232C65.0895 24.3947 66.4997 24.0232 61.9997 25.5232C57.4997 27.0232 55.5942 26.8846 50.4997 26.5232C46.3898 26.8787 44.239 26.6335 40.9997 24.5232C38.1398 24.7283 36.4802 24.2166 33.4997 23.0232C32.5713 23.3552 32.1259 23.6664 31.4997 24.5232C30.0322 27.0247 28.5167 28.4542 27.9999 31.0232C25.9999 34.0232 25.4043 35.3533 25.4999 38.5232C24.8455 38.9913 24.4999 38.5232 23.9999 37.5232L23.4999 35.5232C22.5122 34.0698 21.0001 26.0232 21.4999 24.5232C20.9773 19.5817 21 17.0232 22.4996 13.0232Z" fill="#B9A99B"/>
<path d="M82.7225 47.107L82.655 47.1521L82.6051 47.2161C81.7386 48.3303 81.0405 49.1027 80.4839 49.6033C79.9102 50.1192 79.5494 50.288 79.3562 50.3135C79.2783 50.3238 79.2455 50.3087 79.228 50.2982C79.2035 50.2834 79.1566 50.2436 79.1024 50.1387C78.9868 49.9149 78.9045 49.5261 78.8742 48.9672C78.8144 47.8663 78.9644 46.3649 79.1371 44.8765C79.1633 44.6513 79.19 44.426 79.2165 44.2026C79.3614 42.9807 79.4998 41.8138 79.4998 41.0231V40.9876L79.4948 40.9524C79.2525 39.2556 79.3838 37.3618 79.9551 36.1051C80.2383 35.482 80.6056 35.0662 81.0367 34.8681C81.4524 34.6771 82.0154 34.6483 82.7895 34.977C83.7148 35.4418 84.3659 35.9982 84.8026 36.8718C85.252 37.7705 85.4998 39.0549 85.4998 41.0232C85.4998 42.9606 85.1369 44.2459 84.6265 45.1531C84.1174 46.0581 83.4378 46.6303 82.7225 47.107Z" fill="#F7D7C1" stroke="#F9E2D4"/>
<path d="M21.3912 45.5886L21.4601 45.6282L21.5133 45.6873C22.4198 46.6936 23.1502 47.3914 23.7331 47.8439C24.3292 48.3067 24.7176 48.4702 24.9456 48.4963C25.047 48.5078 25.1007 48.4905 25.1313 48.4746C25.164 48.4577 25.2092 48.4218 25.2596 48.3376C25.3705 48.1522 25.4549 47.8196 25.4863 47.3207C25.5481 46.338 25.3928 44.9913 25.2116 43.6435C25.1844 43.4411 25.1565 43.2382 25.1288 43.0366C24.9771 41.9327 24.8308 40.8682 24.8308 40.1451V40.104L24.8375 40.0635C25.0888 38.5443 24.9508 36.8576 24.3647 35.7444C24.0768 35.1975 23.6978 34.8189 23.2319 34.6341C22.7711 34.4513 22.1534 34.4295 21.3276 34.7326C20.3454 35.1583 19.6677 35.6638 19.2181 36.4401C18.758 37.2346 18.5 38.3758 18.5 40.1452C18.5 41.8787 18.8755 43.0216 19.4007 43.8278C19.928 44.6371 20.6364 45.1542 21.3912 45.5886Z" fill="#F7D7C1" stroke="#F9E2D4"/>
<circle cx="77" cy="107" r="2" fill="#C7C8C9"/>
<g opacity="0.5">
<path d="M18.9993 120.532C18.9998 120.511 19.0026 120.49 19.0077 120.469V120.469C19.087 120.152 19.5526 120.202 19.5628 120.529L20.9534 165.494C20.9789 166.318 20.3176 167 19.4929 167V167C18.6737 167 18.0145 166.327 18.0321 165.507L18.9993 120.532Z" fill="#D9D9D9"/>
<path d="M89 141L90 123L90.9662 165.512C90.9847 166.328 90.3282 167 89.5118 167V167C88.6864 167 88.0264 166.314 88.0581 165.489L89 141Z" fill="#D9D9D9"/>
</g>
<path d="M28.0092 127.525L43.811 153.245L45.9341 154.565L43.4258 79L41.5 80L27.0941 116.064L31.6111 119.932L36.1282 122.799L28.0092 127.525Z" fill="#F7F7F7" stroke="#E1E1E1" stroke-width="0.5"/>
<path d="M49.2962 87.8088C50.0265 86.1048 51.702 85 53.5558 85H54.4891C56.8326 85 58.8617 86.6277 59.3701 88.9153L59.397 89.0367C59.4655 89.3449 59.5047 89.6588 59.514 89.9744L60 106.5L61.5 137.5V152.451C61.5 152.816 61.4601 153.18 61.3809 153.536L59.3701 162.585C58.8617 164.872 56.8326 166.5 54.4891 166.5H53.369C51.0909 166.5 49.1008 164.96 48.529 162.755L46.16 153.617C46.0538 153.207 46 152.786 46 152.362V137.5L47.5 106.5L48.9375 89.2494C48.9789 88.7531 49.1 88.2666 49.2962 87.8088V87.8088Z" fill="#F5A6A6"/>
<path d="M81 107.691L67.8462 80.5101L65.8974 79L62 154L81 118.262L76.859 114.99L72.7179 111.718L81 107.691Z" fill="#F7F7F7" stroke="#E1E1E1" stroke-width="0.5"/>
<path d="M32.9957 91L35.8136 83.9553C35.935 83.6518 36.0608 83.3512 36.2093 83.06C36.7995 81.9028 38.571 78.8082 40.9957 78C42.6631 77.4442 46.0295 77.5063 48.6912 77.671C51.2195 77.8275 53.7614 77.746 56.2841 77.5159C59.0685 77.2619 62.7447 77.1559 64.9957 78C68.9957 79.5 70.9957 81.0001 73.4957 83.5C75.9957 86 75.9957 93.0001 75.9957 96C75.9957 99 76.4957 103.5 76.4957 103.5M32.9957 91C34.1577 91.1559 35.073 91.3622 35.844 91.616C38.8651 92.6105 40.999 95.3094 42.3979 98.1658C42.6171 98.6134 42.8218 99.0643 42.9962 99.5C43.9967 102 44 105 44 105M32.9957 91C29.6363 91.961 28.12 91.9985 25.7847 95.5501C25.5896 95.8467 25.4082 96.153 25.2402 96.4657C24.7015 97.4687 23.5 99.8363 23.5 101C23.5 102.5 24 105 24 105" stroke="#787878"/>
<path d="M81.5 107C81.5 108.835 79.5952 110.5 77 110.5C74.4048 110.5 72.5 108.835 72.5 107C72.5 105.165 74.4048 103.5 77 103.5C79.5952 103.5 81.5 105.165 81.5 107Z" fill="#D9D9D9" stroke="#C7C8C9"/>
<path d="M44 68.6923L52 72.8462L65 68V79.7692L59 86H51L44 79.7692V68.6923Z" fill="#F8E1CF"/>
<ellipse cx="29.5" cy="117" rx="0.5" ry="1" fill="#D9D9D9"/>
<path d="M24 105V105.176C24 109.657 25.8566 113.938 29.1282 117V117M44 105L43.9286 105.96C43.6384 109.865 42.4331 113.647 40.4103 117V117" stroke="#B0B0B0" stroke-width="0.5"/>
<ellipse cx="40.5" cy="117" rx="0.5" ry="1" fill="#D9D9D9"/>
<path d="M44 79.0074C44 78.8259 44.2224 78.7382 44.3462 78.8709L50.9189 85.9131C50.9689 85.9667 50.9856 86.0433 50.9624 86.1128L49.1023 91.693C49.0553 91.834 48.8763 91.8763 48.7712 91.7712L44.0586 87.0586C44.0211 87.0211 44 86.9702 44 86.9172V79.0074Z" fill="#8DC0BD"/>
<path d="M58.0286 86.1143C58.0109 86.0438 58.033 85.9692 58.0861 85.9196L65.1635 79.314C65.2914 79.1947 65.5 79.2854 65.5 79.4602V85.9172C65.5 85.9702 65.4789 86.0211 65.4414 86.0586L59.7498 91.7502C59.6399 91.8601 59.452 91.8081 59.4143 91.6573L58.0286 86.1143Z" fill="#8DC0BD"/>
<path d="M59.6438 88.4986C60.1924 90.3953 59.7171 92.6921 58.1051 93.8323C57.8027 94.0462 57.4444 94.2422 57.0071 94.4144C55.4327 95.0343 53.6549 94.7356 52.0041 94.3642C51.2742 94.2001 50.6372 93.9608 50.0345 93.2655C49.1474 92.2421 48.9459 90.7962 49.0992 89.4505C49.3491 87.2561 50.1613 85.5 52.5 85.5C55.0225 85.5 58.5276 84.6398 59.6438 88.4986Z" fill="#E99E9E"/>
<path d="M51 133H49.4L47 150.625L49.4 154H51V144.812V133Z" fill="#E99E9E"/>
</svg>
